<svg xmlns="http://www.w3.org/2000/svg" viewBox="0 0 512 512">
  <defs>
    <linearGradient id="bg2" x1="0%" y1="0%" x2="100%" y2="100%">
      <stop offset="0%" style="stop-color:#8E2DE2;stop-opacity:1" />
      <stop offset="100%" style="stop-color:#4A00E0;stop-opacity:1" />
    </linearGradient>
  </defs>
  <rect width="512" height="512" fill="url(#bg2)" rx="80"/>
  
  <!-- MSSQL Text -->
  <text x="256" y="120" font-family="Arial, sans-serif" font-size="86" font-weight="bold" fill="#FFFFFF" text-anchor="middle">MSSQL</text>
  
  <!-- Hexagon Badge -->
  <polygon points="256,170 340,215 340,305 256,350 172,305 172,215" fill="white" opacity="0.15" stroke="white" stroke-width="3"/>
  <polygon points="256,190 320,225 320,295 256,330 192,295 192,225" fill="white" opacity="0.9"/>
  
  <!-- Database Stack Inside Hexagon -->
  <ellipse cx="256" cy="245" rx="55" ry="18" fill="#8E2DE2"/>
  <rect x="201" y="245" width="110" height="28" fill="#7020d0"/>
  <ellipse cx="256" cy="273" rx="55" ry="18" fill="#8E2DE2"/>
  <ellipse cx="256" cy="259" rx="55" ry="18" fill="#9D3EE8"/>
  
  <!-- Play Button Badge -->
  <circle cx="310" cy="210" r="28" fill="#00E676"/>
  <polygon points="302,195 302,225 325,210" fill="white"/>
  
  <!-- Query Text -->
  <text x="256" y="435" font-family="Arial, sans-serif" font-size="86" font-weight="bold" fill="white" text-anchor="middle">Query</text>
</svg>
